<svg width="70" height="38" viewBox="0 0 70 38" fill="none" xmlns="http://www.w3.org/2000/svg">
<g clip-path="url(#clip0_614_580)">
<path d="M0.987305 33.4351H1.62928V37.9248H0.987305V33.4351Z" fill="black"/>
<path d="M9.77736 33.4351V37.9248H9.25884L6.59217 34.5638V37.9248H5.9502V33.4351H6.46871L9.13538 36.7961V33.4351H9.77736Z" fill="black"/>
<path d="M17.9502 33.4351L15.9995 37.9248H15.3823L13.4316 33.4351H14.123L15.7279 37.1222L17.3329 33.4351H17.9502Z" fill="black"/>
<path d="M24.7655 37.373V37.9248H21.5557V33.4351H24.6668V33.9869H22.1729V35.3664H24.3952V35.9182H22.1729V37.373H24.7655Z" fill="black"/>
<path d="M29.1353 37.8244C28.8143 37.724 28.5921 37.5735 28.3945 37.423L28.6168 36.9214C28.7896 37.0719 29.0118 37.1973 29.2587 37.2976C29.5303 37.398 29.8019 37.4481 30.0735 37.4481C30.4439 37.4481 30.7155 37.3729 30.8884 37.2475C31.0612 37.1221 31.16 36.9465 31.16 36.7458C31.16 36.5953 31.1106 36.4699 31.0118 36.3696C30.913 36.2693 30.7896 36.194 30.6414 36.1438C30.4933 36.0937 30.2958 36.0435 30.0242 35.9683C29.7032 35.893 29.4316 35.8178 29.2093 35.7174C29.0118 35.6422 28.839 35.5168 28.6908 35.3412C28.5427 35.1656 28.4686 34.9399 28.4686 34.664C28.4686 34.4131 28.5427 34.2125 28.6661 34.0118C28.7896 33.8112 28.9871 33.6607 29.234 33.5603C29.481 33.4349 29.8019 33.3848 30.1723 33.3848C30.4439 33.3848 30.6908 33.4098 30.9377 33.4851C31.1847 33.5603 31.4069 33.6607 31.5797 33.7861L31.3822 34.2877C31.1847 34.1623 30.9871 34.0871 30.7896 34.0118C30.5674 33.9617 30.3698 33.9115 30.1723 33.9115C29.8019 33.9115 29.555 33.9867 29.3575 34.1122C29.16 34.2376 29.0859 34.4131 29.0859 34.6138C29.0859 34.7643 29.1353 34.8897 29.234 34.99C29.3328 35.0904 29.4563 35.1656 29.6044 35.2158C29.7526 35.266 29.9501 35.3161 30.2217 35.3914C30.5427 35.4666 30.8143 35.5419 31.0365 35.6422C31.234 35.7174 31.4069 35.8429 31.555 36.0184C31.7032 36.194 31.7772 36.4197 31.7772 36.6957C31.7772 36.9214 31.7032 37.1471 31.5797 37.3478C31.4563 37.5485 31.2587 37.699 31.0118 37.7993C30.7649 37.9247 30.4439 37.9749 30.0735 37.9749C29.7772 37.9999 29.4563 37.9247 29.1353 37.8244Z" fill="black"/>
<path d="M36.5921 34.012H35.0859V33.4602H38.7403V34.012H37.2341V37.95H36.6168V34.012H36.5921Z" fill="black"/>
<path d="M46.5675 37.95V34.6642L44.9626 37.3982H44.6663L43.0613 34.6893V37.95H42.4688V33.4602H42.9873L44.8391 36.6206L46.6663 33.4602H47.1848V37.95H46.5675Z" fill="black"/>
<path d="M54.7401 37.373V37.9248H51.5303V33.4351H54.6414V33.9869H52.1476V35.3664H54.3698V35.9182H52.1476V37.373H54.7401Z" fill="black"/>
<path d="M62.6172 33.4351V37.9248H62.0987L59.432 34.5638V37.9248H58.79V33.4351H59.3086L61.9752 36.7961V33.4351H62.6172Z" fill="black"/>
<path d="M67.8519 34.012H66.3457V33.4602H70V34.012H68.4938V37.95H67.8766V34.012H67.8519Z" fill="black"/>
<path d="M70.0004 28.0925V28.6945H59.3584V28.0925H70.0004Z" fill="black"/>
<path d="M11.6293 28.0925V28.6945H0.987305V28.0925H11.6293Z" fill="black"/>
<path d="M16.0496 26.8883C16.3212 26.7378 16.6175 26.6626 16.9631 26.6626C17.457 26.6626 17.9014 26.8382 18.2471 27.1893L18.6422 26.788C18.4446 26.5623 18.1977 26.3867 17.9014 26.2613C17.6051 26.1359 17.2841 26.0857 16.9385 26.0857C16.494 26.0857 16.0743 26.186 15.7286 26.3867C15.3582 26.5873 15.0866 26.8633 14.8891 27.2144C14.6915 27.5656 14.5928 27.9669 14.5928 28.3933C14.5928 28.8197 14.6915 29.221 14.8891 29.5722C15.0866 29.9233 15.3829 30.1992 15.7286 30.3999C16.0989 30.6005 16.494 30.7009 16.9385 30.7009C17.2594 30.7009 17.5557 30.6507 17.852 30.5504C18.1483 30.4501 18.3952 30.2996 18.6175 30.124V28.3682H18.0002V29.823C17.7039 30.0236 17.3582 30.124 16.9631 30.124C16.6422 30.124 16.3212 30.0487 16.0743 29.8982C15.8026 29.7477 15.6051 29.5471 15.457 29.2712C15.3088 29.0203 15.2347 28.7194 15.2347 28.3933C15.2347 28.0672 15.3088 27.7662 15.457 27.5154C15.5804 27.2395 15.8027 27.0388 16.0496 26.8883Z" fill="black"/>
<path d="M23.4818 26.1611H22.8398V30.6509H25.8769V30.0991H23.4818V26.1611Z" fill="black"/>
<path d="M32.7411 26.3867C32.3707 26.186 31.9757 26.0857 31.5312 26.0857C31.0868 26.0857 30.6917 26.186 30.3214 26.3867C29.951 26.5873 29.6794 26.8633 29.4818 27.2144C29.2843 27.5656 29.1855 27.9669 29.1855 28.3933C29.1855 28.8197 29.2843 29.221 29.4818 29.5722C29.6794 29.9233 29.9757 30.1992 30.3214 30.3999C30.6917 30.6005 31.0868 30.7009 31.5312 30.7009C31.9757 30.7009 32.3707 30.6005 32.7411 30.3999C33.1115 30.1992 33.3831 29.9233 33.5806 29.5722C33.7781 29.221 33.8769 28.8197 33.8769 28.3933C33.8769 27.9669 33.7781 27.5656 33.5806 27.2144C33.3831 26.8633 33.1115 26.5873 32.7411 26.3867ZM33.0374 29.2712C32.8893 29.5471 32.6917 29.7477 32.4201 29.8982C32.1732 30.0487 31.8769 30.124 31.5559 30.124C31.2349 30.124 30.9386 30.0487 30.667 29.8982C30.3954 29.7477 30.1979 29.5471 30.0497 29.2712C29.9016 29.0203 29.8275 28.7194 29.8275 28.3933C29.8275 28.0672 29.9016 27.7662 30.0497 27.5154C30.1979 27.2646 30.3954 27.0388 30.667 26.8883C30.9386 26.7378 31.2349 26.6626 31.5559 26.6626C31.8769 26.6626 32.1732 26.7378 32.4201 26.8883C32.667 27.0388 32.8893 27.2395 33.0374 27.5154C33.1855 27.7913 33.2596 28.0672 33.2596 28.3933C33.2596 28.7194 33.1855 29.0203 33.0374 29.2712Z" fill="black"/>
<path d="M40.8643 28.3182C41.0372 28.2179 41.1853 28.0925 41.3088 27.9169C41.4075 27.7413 41.4816 27.5407 41.4816 27.3149C41.4816 26.9387 41.3335 26.6628 41.0619 26.4621C40.7903 26.2615 40.3952 26.1611 39.8767 26.1611H37.9014V30.6509H40.0248C40.568 30.6509 40.9878 30.5506 41.2841 30.3248C41.5804 30.1242 41.7285 29.8232 41.7285 29.4219C41.7285 29.1209 41.6545 28.8951 41.5063 28.6945C41.3335 28.5189 41.1359 28.3935 40.8643 28.3182ZM38.5187 26.6628H39.8026C40.1236 26.6628 40.3705 26.7129 40.5433 26.8384C40.7162 26.9638 40.8149 27.1393 40.8149 27.3651C40.8149 27.5908 40.7162 27.7915 40.5433 27.8918C40.3705 28.0172 40.1236 28.0674 39.8026 28.0674H38.5187V26.6628ZM40.7903 29.9486C40.6174 30.074 40.3458 30.1242 39.9754 30.1242H38.5187V28.6192H39.9754C40.6915 28.6192 41.0619 28.87 41.0619 29.3717C41.0619 29.6476 40.9631 29.8232 40.7903 29.9486Z" fill="black"/>
<path d="M47.0615 26.1611L45.0615 30.6509H45.7035L46.1973 29.5222H48.543L49.0368 30.6509H49.7035L47.7035 26.1611H47.0615ZM46.3949 28.9955L47.3578 26.7882L48.3208 28.9955H46.3949Z" fill="black"/>
<path d="M54.0248 30.0991V26.1611H53.3828V30.6509H56.4199V30.0991H54.0248Z" fill="black"/>
<path d="M43.8268 7.65015H33.5059V11.2119H43.8268V7.65015Z" fill="black"/>
<path d="M30.2219 4.31419H43.8516V0H25.6787V22.6244H30.2219V4.31419Z" fill="black"/>
<path d="M11.9749 7.65015H7.43164V22.6244H11.9749V7.65015Z" fill="black"/>
<path d="M19.4321 0H0V4.31419H19.4321V0Z" fill="black"/>
<path d="M69.9753 7.65015H59.6543V11.2119H69.9753V7.65015Z" fill="black"/>
<path d="M56.3704 4.31419H70V0H51.8271V22.6244H56.3704V4.31419Z" fill="black"/>
</g>
<defs>
<clipPath id="clip0_614_580">
<rect width="70" height="38" fill="white"/>
</clipPath>
</defs>
</svg>
